<svg width="10" height="15" viewBox="0 0 10 15" fill="none" xmlns="http://www.w3.org/2000/svg">
<path d="M8.4999 0H1.49998C0.67284 0 0 0.628103 0 1.40025V13.5357C0 14.3079 0.67284 14.936 1.49998 14.936H8.4999C9.32704 14.936 9.99988 14.3079 9.99988 13.5357V1.40025C9.99988 0.628103 9.32704 0 8.4999 0ZM1.49998 0.933498H8.4999C8.77577 0.933498 8.99989 1.14271 8.99989 1.40025V11.202H0.999988V1.40025C0.999988 1.14271 1.22411 0.933498 1.49998 0.933498ZM8.4999 14.0025H1.49998C1.22411 14.0025 0.999988 13.7933 0.999988 13.5357V12.1355H8.99989V13.5357C8.99989 13.7933 8.77577 14.0025 8.4999 14.0025Z" fill="#757575"/>
<path d="M2.35365 12.739C2.54894 12.9213 2.54894 13.217 2.35365 13.3993C2.15836 13.5816 1.84176 13.5816 1.64647 13.3993C1.45118 13.217 1.45118 12.9213 1.64647 12.739C1.84176 12.5566 2.15836 12.5566 2.35365 12.739Z" fill="#757575"/>
</svg>
